<svg width="16" height="16" viewBox="0 0 16 16" fill="none" xmlns="http://www.w3.org/2000/svg">
<g clip-path="url(#clip0)">
<path d="M0 2C0 0.895431 0.89543 0 2 0H11C12.1046 0 13 0.895431 13 2V10C13 10.5523 12.5523 11 12 11C11.4477 11 11 10.5523 11 10V2L2 2V14H8C8.55228 14 9 14.4477 9 15C9 15.5523 8.55228 16 8 16H2C0.89543 16 0 15.1046 0 14V2Z" fill="white"/>
<path d="M15.6 10.2C16.0418 10.5314 16.1314 11.1582 15.8 11.6L12.8 15.6C12.6261 15.8319 12.3601 15.9769 12.0709 15.9975C11.7817 16.018 11.4979 15.9121 11.2929 15.7071L9.29289 13.7071C8.90237 13.3166 8.90237 12.6834 9.29289 12.2929C9.68342 11.9024 10.3166 11.9024 10.7071 12.2929L11.8918 13.4776L14.2 10.4C14.5314 9.95817 15.1582 9.86863 15.6 10.2Z" fill="white"/>
<path d="M4 4C3.44772 4 3 4.44772 3 5C3 5.55228 3.44772 6 4 6H9C9.55228 6 10 5.55228 10 5C10 4.44772 9.55228 4 9 4H4Z" fill="white"/>
<path d="M3 8C3 7.44772 3.44772 7 4 7H9C9.55228 7 10 7.44772 10 8C10 8.55229 9.55228 9 9 9H4C3.44772 9 3 8.55229 3 8Z" fill="white"/>
<path d="M4 10C3.44772 10 3 10.4477 3 11C3 11.5523 3.44772 12 4 12H6C6.55228 12 7 11.5523 7 11C7 10.4477 6.55228 10 6 10H4Z" fill="white"/>
</g>
<defs>
<clipPath id="clip0">
<rect width="16" height="16.0001" fill="white"/>
</clipPath>
</defs>
</svg>
