<svg width="16" height="16" viewBox="0 0 16 16" fill="none" xmlns="http://www.w3.org/2000/svg">
<path d="M7 6.5V8C7 8.55228 7.44772 9 8 9C8.55228 9 9 8.55228 9 8V6.5C9 5.94772 8.55228 5.5 8 5.5C7.44772 5.5 7 5.94772 7 6.5Z" fill="white"/>
<path d="M11 4C11.5523 4 12 4.44772 12 5V8C12 8.55229 11.5523 9 11 9C10.4477 9 10 8.55228 10 8V5C10 4.44772 10.4477 4 11 4Z" fill="white"/>
<path d="M5 9C5.55228 9 6 8.55228 6 8C6 7.44772 5.55228 7 5 7C4.44772 7 4 7.44772 4 8C4 8.55228 4.44772 9 5 9Z" fill="white"/>
<path fill-rule="evenodd" clip-rule="evenodd" d="M0 3C0 1.89543 0.895431 1 2 1H14C15.1046 1 16 1.89543 16 3V10C16 11.1046 15.1046 12 14 12H2C0.895431 12 0 11.1046 0 10V3ZM14 3H2V10H14V3Z" fill="white"/>
<path d="M3 14C3 13.4477 3.44772 13 4 13H12C12.5523 13 13 13.4477 13 14C13 14.5523 12.5523 15 12 15H4C3.44772 15 3 14.5523 3 14Z" fill="white"/>
</svg>
