<svg width="16" height="16" viewBox="0 0 16 16" fill="none" xmlns="http://www.w3.org/2000/svg">
<path fill-rule="evenodd" clip-rule="evenodd" d="M6.5 2V2.8H9.5V2H6.5ZM4.5 1.7C4.5 0.870692 5.12399 0 6.125 0H9.875C10.876 0 11.5 0.870692 11.5 1.7V3.1C11.5 3.92931 10.876 4.8 9.875 4.8H6.125C5.12399 4.8 4.5 3.92931 4.5 3.1V1.7ZM3 3.4C3 3.4 3 12.7552 3 13.6C3 13.7404 3.05082 13.8553 3.11205 13.9239C3.16998 13.9888 3.22263 14 3.25 14H12.75C12.7774 14 12.83 13.9888 12.8879 13.9239C12.9492 13.8553 13 13.7404 13 13.6C13 12.6215 13 3.8 13 3.4C12.4477 3.4 12 2.95228 12 2.4C12 1.84772 12.4477 1.4 13 1.4C13.6357 1.4 14.0891 1.53977 14.5 2C14.9076 2.45652 15 3.19776 15 3.8V13.6C15 14.2022 14.7874 14.7994 14.3798 15.256C13.9689 15.7162 13.3857 16 12.75 16H3.25C2.61433 16 2.03109 15.7162 1.62018 15.256C1.21257 14.7994 1 14.2022 1 13.6V3.8C1 3.19776 1.0924 2.45652 1.5 2C1.91092 1.53977 2.36433 1.4 3 1.4C3.55228 1.4 4 1.84772 4 2.4C4 2.95228 3.55228 3.4 3 3.4Z" fill="white"/>
</svg>
