<svg width="16" height="16" viewBox="0 0 16 16" fill="none" xmlns="http://www.w3.org/2000/svg">
<g clip-path="url(#clip0)">
<path fill-rule="evenodd" clip-rule="evenodd" d="M14.1 9.69621e-09C15.1819 9.69621e-09 16 0.956068 16 2V12.2422C16 13.3612 15.1008 14.2088 14.0575 14.2684C12.2593 14.3712 10.5681 14.7841 9.14717 15.668C8.79677 15.886 8.39839 16 8 16C7.60161 16 7.20323 15.886 6.85283 15.668C5.4319 14.7841 3.7407 14.3712 1.94246 14.2684C0.899171 14.2088 0 13.3612 0 12.2422V2C0 0.956018 0.756368 1.12513e-09 1.9 1.12513e-09C3.8262 -3.06106e-05 6.02638 0.624585 7.67082 1.58395C8.57511 2.1115 9 3.08125 9 4V13.4682C10.5571 12.7109 12.2603 12.3679 13.9435 12.2717C13.966 12.2704 13.9835 12.2609 13.994 12.2502C13.9977 12.2465 14 12.2426 14 12.2426L14 2C13.3162 2.04165 12.6462 2.15833 12 2.30021V6C12 6.55228 11.5523 7 11 7C10.4477 7 10 6.55228 10 6V2.27268C10 1.40067 10.5784 0.569932 11.5046 0.361514C12.3356 0.17455 13.2561 9.69621e-09 14.1 9.69621e-09ZM7 13.4682V4C7 3.65972 6.84621 3.41834 6.663 3.31146C5.29778 2.51499 3.69714 2.10336 2 2V12.2422C2 12.2422 2.00225 12.2465 2.00597 12.2502C2.01646 12.2609 2.03403 12.2704 2.05654 12.2717C3.73969 12.3679 5.44287 12.7109 7 13.4682Z" fill="white"/>
</g>
<defs>
<clipPath id="clip0">
<rect width="16" height="16" fill="white"/>
</clipPath>
</defs>
</svg>
