<svg width="16" height="16" viewBox="0 0 16 16" fill="none" xmlns="http://www.w3.org/2000/svg">
<path d="M10.7164 2.05232C11.3541 1.85582 12 2.33262 12 2.99993C12 3.55222 12.4477 3.99997 13 3.99997C13.5523 3.99997 14 3.55225 14 2.99997C14 1.29287 12.5977 0 11 0C10.7164 3.14e-05 10.4201 0.0508498 10.1275 0.141005L2.8221 2.39207C1.14452 2.909 0 4.45929 0 6.21471V12.9999C0 14.6568 1.34315 15.9999 3 15.9999H14C15.1046 15.9999 16 15.1045 16 13.9999V6.99993C16 5.89536 15.1046 4.99993 14 4.99993H4C3.44772 4.99993 3 5.44765 3 5.99993C3 6.55222 3.44772 6.99993 4 6.99993H14V13.9999H3C2.44772 13.9999 2 13.5522 2 12.9999V6.21471C2 5.337 2.57226 4.56186 3.41105 4.30339L10.7164 2.05232Z" fill="white"/>
<path d="M13 10.5C13 11.3284 12.3284 12 11.5 12C10.6716 12 10 11.3284 10 10.5C10 9.67154 10.6716 8.99997 11.5 8.99997C12.3284 8.99997 13 9.67154 13 10.5Z" fill="white"/>
</svg>
