<svg width="16" height="17" viewBox="0 0 16 17" fill="none" xmlns="http://www.w3.org/2000/svg">
<path opacity="0.72" d="M5.5773 6.89394L2.62994 9.84131C2.47171 10.0199 2.33888 10.222 2.2353 10.4441C1.65179 11.6955 2.19318 13.1829 3.44453 13.7664C4.39989 14.2119 5.49288 14.0017 6.21615 13.3205L13.1855 6.3512C13.2003 6.33477 13.2164 6.31969 13.2323 6.30437L13.3017 6.23494C14.2711 5.19587 14.2159 3.61392 13.2061 2.67228C12.2513 1.78197 10.7851 1.78282 9.83223 2.63901L8.97016 3.50108L8.96205 3.49377C8.77913 3.72985 8.49286 3.88182 8.17109 3.88182C7.61881 3.88182 7.17109 3.43411 7.17109 2.88182C7.17109 2.57995 7.30486 2.30931 7.51634 2.12596L8.21058 1.43223C8.28825 1.34773 8.36898 1.26747 8.45195 1.19087L8.54187 1.10094C10.2629 -0.391342 12.868 -0.377613 14.5701 1.20957C16.2509 2.77699 16.4624 5.33004 15.1443 7.14279C14.8255 7.51414 14.6557 7.70997 14.6348 7.73025L7.40514 14.9599C6.09595 16.0365 4.23549 16.342 2.59929 15.579C0.346862 14.5287 -0.627636 11.8513 0.422689 9.59888C0.533205 9.36188 0.662873 9.13684 0.810052 8.92547L1.17925 8.46356C1.24494 8.39169 1.31296 8.32197 1.38324 8.2545C2.59294 7.04569 3.50022 6.13909 4.10507 5.53469C4.12583 5.51394 4.14737 5.49351 4.16966 5.4734C4.97172 4.653 6.18383 4.35217 7.29238 4.73388C8.85896 5.2733 9.69165 6.98055 9.15223 8.54714C8.97696 9.05617 8.67417 9.49566 8.28526 9.83388L6.51426 11.6049C6.33088 11.8176 6.05943 11.9523 5.75653 11.9523C5.20424 11.9523 4.75653 11.5046 4.75653 10.9523C4.75653 10.6884 4.85871 10.4485 5.02566 10.2698L5.02327 10.2674L7.10233 8.18838C7.16999 8.10212 7.22408 8.00379 7.26119 7.896C7.441 7.37381 7.16344 6.80472 6.64124 6.62491C6.27642 6.4993 5.87832 6.59515 5.61065 6.86059L5.6047 6.86654C5.59564 6.87568 5.58672 6.88502 5.57797 6.89455L5.5773 6.89394Z" fill="#03153A"/>
</svg>
