<svg width="14" height="17" viewBox="0 0 14 17" fill="none" xmlns="http://www.w3.org/2000/svg">
<path d="M9.7014 0.656224C9.40092 0.325452 8.91887 0.237146 8.52234 0.440231C8.12581 0.643317 7.91189 1.08806 7.9991 1.52806C8.34388 3.26762 7.90723 4.38386 7.37623 4.90536C6.88555 5.38726 6.15964 5.52733 5.34415 5.01687C4.87905 4.72574 4.26812 4.87019 3.97961 5.33951C3.69109 5.80883 3.83424 6.42529 4.29934 6.71643C5.82869 7.67373 7.56641 7.50948 8.75863 6.3386C9.30822 5.79885 9.70155 5.08752 9.91556 4.25373C11.2261 6.44232 11.6974 8.67064 11.4574 10.4468C11.2969 11.6339 10.8264 12.592 10.1133 13.2505C9.40696 13.9028 8.3868 14.3319 6.98859 14.3319C5.59557 14.3319 4.63663 13.906 3.97409 13.2912C3.29731 12.6632 2.85006 11.7628 2.63269 10.6935C2.18953 8.51352 2.76096 5.92475 3.83095 4.41319C4.14908 3.96377 4.04592 3.33922 3.60055 3.01821C3.15517 2.69721 2.53623 2.8013 2.21811 3.25071C0.810559 5.23914 0.143226 8.40038 0.691082 11.0954C0.96922 12.4636 1.57492 13.782 2.63242 14.7633C3.70415 15.7579 5.16082 16.3319 6.98859 16.3319C8.81119 16.3319 10.3305 15.7611 11.4514 14.7259C12.5656 13.6969 13.21 12.28 13.4212 10.7171C13.8411 7.61033 12.5795 3.82446 9.7014 0.656224Z" fill="#3D75E4"/>
<path d="M5.06833 12.1676C6.12191 14.1438 10.7923 12.2718 9.65806 8.28925C9.61611 8.14193 9.42749 8.10356 9.31217 8.20333C8.82793 8.62231 8.21416 8.80243 7.62851 8.9743C7.24716 9.08621 6.87772 9.19463 6.56374 9.36322C5.23162 10.0785 4.51291 11.1258 5.06833 12.1676Z" fill="#3D75E4"/>
</svg>
