<svg width="16" height="16" viewBox="0 0 16 16" fill="none" xmlns="http://www.w3.org/2000/svg">
<path fill-rule="evenodd" clip-rule="evenodd" d="M7.9999 3.2C8.8799 3.2 9.5999 2.48 9.5999 1.6C9.5999 0.72 8.8799 0 7.9999 0C7.1199 0 6.3999 0.72 6.3999 1.6C6.3999 2.48 7.1199 3.2 7.9999 3.2ZM7.9999 6.4C7.1199 6.4 6.3999 7.12 6.3999 8C6.3999 8.88 7.1199 9.6 7.9999 9.6C8.8799 9.6 9.5999 8.88 9.5999 8C9.5999 7.12 8.8799 6.4 7.9999 6.4ZM6.3999 14.4C6.3999 13.52 7.1199 12.8 7.9999 12.8C8.8799 12.8 9.5999 13.52 9.5999 14.4C9.5999 15.28 8.8799 16 7.9999 16C7.1199 16 6.3999 15.28 6.3999 14.4Z" fill="#3D75E4"/>
</svg>
