<svg width="16" height="17" viewBox="0 0 16 17" fill="none" xmlns="http://www.w3.org/2000/svg">
<path d="M3.00088 11.6494C1.16915 8.88801 1.9228 5.16452 4.68422 3.33279C7.44564 1.50106 11.1691 2.25471 13.0009 5.01613C14.1273 6.71426 14.277 8.776 13.5802 10.5414C13.4409 10.8944 13.2679 11.2351 13.0622 11.5582C12.7657 12.0242 12.9031 12.6423 13.369 12.9388C13.835 13.2353 14.4531 13.0979 14.7496 12.632C15.0242 12.2004 15.255 11.7459 15.4406 11.2756C16.367 8.92823 16.1705 6.1764 14.6675 3.91058C12.2252 0.228694 7.26056 -0.776182 3.57867 1.66613C-0.103215 4.10844 -1.10809 9.07308 1.33422 12.755C3.77653 16.4369 8.74117 17.4417 12.4231 14.9994C12.8833 14.6941 13.0089 14.0736 12.7036 13.6133C12.3983 13.1531 11.7777 13.0275 11.3175 13.3328C8.5561 15.1645 4.83261 14.4108 3.00088 11.6494Z" fill="#3D75E4"/>
<path fill-rule="evenodd" clip-rule="evenodd" d="M9.01295 9.11262C8.98833 9.34827 8.82545 9.53574 8.63671 9.65876C8.44561 9.78331 8.20436 9.85859 7.9758 9.85859C7.48595 9.85859 7.0578 9.49185 7.0578 9.00059V8.88059C7.0578 8.62697 7.10944 8.41269 7.25946 8.17503C7.40421 7.9457 7.639 7.69736 7.99352 7.36687L7.99625 7.36433C8.31473 7.08191 8.4938 6.90075 8.59473 6.75407C8.68852 6.61775 8.7138 6.51298 8.7138 6.37259C8.7138 6.04578 8.46731 5.80259 8.1558 5.80259C8.0097 5.80259 7.88658 5.83973 7.77676 5.91456C7.66493 5.99075 7.55905 6.11145 7.45854 6.29013L7.45472 6.29693L7.45021 6.3033C7.34249 6.45537 7.2303 6.57747 7.09956 6.661C6.9657 6.74652 6.82028 6.78659 6.6558 6.78659C6.16173 6.78659 5.7858 6.39217 5.7858 5.90459C5.7858 5.70047 5.85878 5.50666 5.97195 5.30504C6.40843 4.47236 7.21804 4.01459 8.2038 4.01459C9.59603 4.01459 10.6938 4.92481 10.6938 6.16859C10.6938 6.819 10.3813 7.3368 9.66985 7.93812C9.37091 8.20204 9.21522 8.39475 9.1314 8.55323C9.05001 8.7071 9.03128 8.83801 9.02571 8.99395L9.02531 9.0052L9.01295 9.11262Z" fill="#3D75E4"/>
<path d="M8.00065 12.6516C8.60214 12.6516 9.08975 12.1639 9.08975 11.5624C9.08975 10.9609 8.60214 10.4733 8.00065 10.4733C7.39915 10.4733 6.91154 10.9609 6.91154 11.5624C6.91154 12.1639 7.39915 12.6516 8.00065 12.6516Z" fill="#3D75E4"/>
</svg>
