<svg width="16" height="17" viewBox="0 0 16 17" fill="none" xmlns="http://www.w3.org/2000/svg">
<path fill-rule="evenodd" clip-rule="evenodd" d="M8.00007 10.3319C10.8001 10.3319 13.0001 8.13191 13.0001 5.33191C13.0001 2.53191 10.8001 0.331909 8.00007 0.331909C5.20007 0.331909 3.00007 2.53191 3.00007 5.33191C3.00007 8.13191 5.20007 10.3319 8.00007 10.3319ZM8.00007 2.33191C9.70007 2.33191 11.0001 3.63191 11.0001 5.33191C11.0001 7.03191 9.70007 8.33191 8.00007 8.33191C6.30007 8.33191 5.00007 7.03191 5.00007 5.33191C5.00007 3.63191 6.30007 2.33191 8.00007 2.33191ZM15.8001 15.9319C15.5001 16.3319 14.8001 16.4319 14.4001 16.1319C12.5001 14.7319 10.7001 13.8319 8.00007 13.8319C5.30007 13.8319 3.50007 14.7319 1.60007 16.1319C1.20007 16.4319 0.500068 16.3319 0.200068 15.9319C-0.0999319 15.5319 6.80909e-05 14.8319 0.400068 14.5319C2.50007 12.9319 4.70007 11.8319 8.00007 11.8319C11.3001 11.8319 13.5001 12.9319 15.6001 14.5319C16.0001 14.8319 16.1001 15.5319 15.8001 15.9319Z" fill="#3D75E4"/>
</svg>
