<svg width="16" height="16" viewBox="0 0 16 16" fill="none" xmlns="http://www.w3.org/2000/svg">
<path d="M4.5 3.82881C4.77922 3.82881 5.04066 3.75258 5.26458 3.6198C5.50492 3.47729 5.76296 3.34482 6.04238 3.34482H7V4.34378C7 4.8955 7.44775 5.34275 8 5.34275C8.55225 5.34275 9 4.8955 9 4.34378V3.34482H9.92297C10.2099 3.34482 10.4738 3.48429 10.7187 3.63385C10.9462 3.77285 11.2138 3.85296 11.5 3.85296C12.3284 3.85296 13 3.18208 13 2.35451C13 1.52693 12.3284 0.856054 11.5 0.856054C11.2187 0.856054 10.9556 0.933383 10.7306 1.06792C10.489 1.21243 10.2293 1.34688 9.94773 1.34688H6.08664C5.79761 1.34688 5.53208 1.20542 5.28597 1.05386C5.05741 0.913112 4.7882 0.831909 4.5 0.831909C3.67163 0.831909 3 1.50279 3 2.33036C3 3.15794 3.67163 3.82881 4.5 3.82881Z" fill="#3D75E4"/>
<path d="M8 7.84017C7.18176 7.84017 6.44165 8.16613 5.89941 8.69742C5.54309 9.04653 5.02209 9.33862 4.39734 9.33862H3.5C2.94775 9.33862 2.5 8.89137 2.5 8.33965C2.5 7.78793 2.94775 7.34068 3.5 7.34068H4.3949L4.39893 7.33959L4.40369 7.3379L4.41248 7.33418C4.43274 7.32488 4.46387 7.3055 4.4989 7.2711C5.3999 6.3883 6.63708 5.84223 8 5.84223C9.36292 5.84223 10.6001 6.3883 11.5011 7.2711C11.5609 7.32982 11.6474 7.34068 11.7312 7.34068H13.8135C14.0117 7.34068 14.1874 7.22534 14.3356 7.09362C14.5122 6.93659 14.745 6.8412 15 6.8412C15.5522 6.8412 16 7.28845 16 7.84017V13.834C16 14.3857 15.5522 14.8329 15 14.8329C14.4478 14.8329 14 14.3857 14 13.834V9.33862H11.6027C10.9779 9.33862 10.4569 9.04653 10.1006 8.69742C9.55835 8.16613 8.81824 7.84017 8 7.84017Z" fill="#3D75E4"/>
<path d="M2 12.3355V7.84017C2 7.28845 1.55225 6.8412 1 6.8412C0.447754 6.8412 0 7.28845 0 7.84017V13.834C0 14.3857 0.447754 14.8329 1 14.8329C1.25505 14.8329 1.48778 14.7375 1.66444 14.5805C1.81263 14.4488 1.98828 14.3335 2.18654 14.3335H4.26878C4.35259 14.3335 4.43911 14.3443 4.4989 14.403C5.3999 15.2858 6.63708 15.8319 8 15.8319C9.36292 15.8319 10.6001 15.2858 11.5011 14.403C11.5361 14.3686 11.5673 14.3493 11.5875 14.34C11.5969 14.3356 11.6028 14.334 11.6051 14.3335H12.5C13.0522 14.3335 13.5 13.8862 13.5 13.3345C13.5 12.7828 13.0522 12.3355 12.5 12.3355H11.6027C10.9779 12.3355 10.4569 12.6276 10.1006 12.9767C9.55835 13.508 8.81824 13.834 8 13.834C7.18176 13.834 6.44165 13.508 5.89941 12.9767C5.54309 12.6276 5.02209 12.3355 4.39734 12.3355H2Z" fill="#3D75E4"/>
</svg>
